<svg width="20" height="14" viewBox="0 0 20 14" fill="none" xmlns="http://www.w3.org/2000/svg">
<path d="M12.29 0.709986C12.1973 0.802499 12.1237 0.912388 12.0736 1.03336C12.0234 1.15433 11.9976 1.28402 11.9976 1.41499C11.9976 1.54595 12.0234 1.67564 12.0736 1.79661C12.1237 1.91758 12.1973 2.02747 12.29 2.11999L16.17 5.99999H1C0.45 5.99999 0 6.44999 0 6.99999C0 7.54999 0.45 7.99999 1 7.99999H16.18L12.3 11.88C12.2074 11.9726 12.134 12.0825 12.0839 12.2034C12.0338 12.3244 12.008 12.4541 12.008 12.585C12.008 12.7159 12.0338 12.8456 12.0839 12.9665C12.134 13.0875 12.2074 13.1974 12.3 13.29C12.3926 13.3826 12.5025 13.456 12.6235 13.5061C12.7444 13.5562 12.8741 13.582 13.005 13.582C13.1359 13.582 13.2656 13.5562 13.3865 13.5061C13.5075 13.456 13.6174 13.3826 13.71 13.29L19.3 7.69999C19.3927 7.60747 19.4662 7.49758 19.5164 7.37661C19.5666 7.25564 19.5924 7.12595 19.5924 6.99499C19.5924 6.86402 19.5666 6.73433 19.5164 6.61336C19.4662 6.49239 19.3927 6.3825 19.3 6.28999L13.7 0.709986C13.6075 0.617282 13.4976 0.543735 13.3766 0.493553C13.2557 0.443372 13.126 0.417542 12.995 0.417542C12.864 0.417542 12.7343 0.443372 12.6134 0.493553C12.4924 0.543735 12.3825 0.617282 12.29 0.709986Z" fill="#03E69F"/>
</svg>
