<svg width="38" height="43" fill="none" xmlns="http://www.w3.org/2000/svg"><path fill-rule="evenodd" clip-rule="evenodd" d="M23.358 9.707V2.723c0-1.274-1.274-2.1-2.48-1.55L2.964 9.16c-.483.206-.896.55-1.24.93l-.07.068c0 .035-.034.069-.068.103a2.223 2.223 0 00-.345 1.17 2.03 2.03 0 001.275 1.894l7.98 3.553c2.47-4.29 7.1-7.178 12.404-7.178.153 0 .306.002.459.007zm-22.186 2.93c.071.182.163.352.272.508L1 12.947v-.276c0-.034.034-.103.103-.103.035 0 .07.034.07.069z" fill="url(#paint0_linear)"/><path opacity=".35" fill-rule="evenodd" clip-rule="evenodd" d="M23.358 9.707V2.723c0-1.274-1.274-2.1-2.48-1.55L2.964 9.16c-.483.206-.896.55-1.24.93l-.07.068c0 .035-.034.069-.068.103a2.223 2.223 0 00-.345 1.17 2.03 2.03 0 001.275 1.894l7.98 3.553c2.47-4.29 7.1-7.178 12.404-7.178.153 0 .306.002.459.007zm-22.186 2.93c.071.182.163.352.272.508L1 12.947v-.276c0-.034.034-.103.103-.103.035 0 .07.034.07.069z" fill="url(#paint1_linear)"/><path fill-rule="evenodd" clip-rule="evenodd" d="M36.5 24c0 7.456-6.044 13.5-13.5 13.5S9.5 31.456 9.5 24 15.544 10.5 23 10.5 36.5 16.544 36.5 24zm.5 0c0 7.732-6.268 14-14 14S9 31.732 9 24s6.268-14 14-14 14 6.268 14 14zM23 37c7.18 0 13-5.82 13-13s-5.82-13-13-13-13 5.82-13 13 5.82 13 13 13z" fill="url(#paint2_linear)"/><path fill-rule="evenodd" clip-rule="evenodd" d="M36.5 24c0 7.456-6.044 13.5-13.5 13.5S9.5 31.456 9.5 24 15.544 10.5 23 10.5 36.5 16.544 36.5 24zm.5 0c0 7.732-6.268 14-14 14S9 31.732 9 24s6.268-14 14-14 14 6.268 14 14zM23 37c7.18 0 13-5.82 13-13s-5.82-13-13-13-13 5.82-13 13 5.82 13 13 13z" fill="#03E69F"/><path fill-rule="evenodd" clip-rule="evenodd" d="M23.358 25.011v15.766c0 1.24-1.274 2.066-2.411 1.584L3.033 34.374A3.435 3.435 0 011 31.242V12.17c0-.034.034-.103.103-.103.035 0 .07.034.07.069a2.39 2.39 0 001.308 1.342l.31.138 18.57 8.261a3.461 3.461 0 011.997 3.133z" fill="url(#paint3_linear)"/><defs><linearGradient id="paint0_linear" x1="-6.269" y1="3.929" x2=".47" y2="24.451" gradientUnits="userSpaceOnUse"><stop stop-color="#E29A9A"/><stop offset="0" stop-color="#03E69F"/><stop offset="1" stop-color="#0378FF"/></linearGradient><linearGradient id="paint1_linear" x1="1" y1="5" x2="18.747" y2="-11.665" gradientUnits="userSpaceOnUse"><stop stop-color="#00326C"/><stop offset="1" stop-color="#fff" stop-opacity="0"/><stop offset="1" stop-color="#BF3C3C" stop-opacity="0"/></linearGradient><linearGradient id="paint2_linear" x1="-3.718" y1="8.586" x2="39.103" y2="66.493" gradientUnits="userSpaceOnUse"><stop stop-color="#E29A9A"/><stop offset="0" stop-color="#03E69F"/><stop offset="1" stop-color="#0378FF"/></linearGradient><linearGradient id="paint3_linear" x1="-6.269" y1="8.247" x2="23.504" y2="42.522" gradientUnits="userSpaceOnUse"><stop stop-color="#E29A9A"/><stop offset="0" stop-color="#03E69F"/><stop offset="1" stop-color="#0378FF"/></linearGradient></defs></svg>