<svg width="146" height="43" fill="none" xmlns="http://www.w3.org/2000/svg"><path d="M43 38.752v-15.51h7.106c1.657 0 2.933.36 3.828 1.078.91.719 1.364 1.701 1.364 2.948 0 .822-.205 1.533-.616 2.134-.41.587-.983 1.027-1.716 1.32.88.25 1.555.69 2.024 1.32.484.63.726 1.408.726 2.332 0 1.379-.484 2.457-1.452 3.234-.953.763-2.259 1.144-3.916 1.144H43zm3.256-9.13h3.256c1.672 0 2.508-.645 2.508-1.936 0-1.276-.836-1.914-2.508-1.914h-3.256v3.85zm0 6.6h3.63c.88 0 1.525-.169 1.936-.506.41-.337.616-.85.616-1.54 0-.675-.205-1.18-.616-1.518-.41-.337-1.056-.506-1.936-.506h-3.63v4.07zm10.194 2.53l7.128-15.51h2.75l7.128 15.51h-3.432l-1.452-3.366h-7.238l-1.43 3.366H56.45zm8.47-11.88l-2.442 5.852h4.972l-2.486-5.852h-.044zm9.877 11.88v-15.51h2.53l7.744 9.878v-9.878h3.168v15.51H85.73l-7.766-9.9v9.9h-3.168zm16.564 0v-15.51h3.41v6.754h.044l6.446-6.754h4.092l-7.216 7.414 7.524 8.096h-4.136l-6.71-7.084h-.044v7.084h-3.41zm15.104 0v-15.51h3.41v15.51h-3.41zm6.51 0v-15.51h2.53l7.744 9.878v-9.878h3.168v15.51h-2.508l-7.766-9.9v9.9h-3.168zm24.242.242c-1.745 0-3.227-.33-4.444-.99a6.679 6.679 0 01-2.75-2.772c-.631-1.188-.946-2.581-.946-4.18 0-1.643.323-3.065.968-4.268a6.857 6.857 0 012.838-2.794c1.232-.66 2.713-.99 4.444-.99a10.1 10.1 0 013.08.462c.983.308 1.782.719 2.398 1.232l-1.1 2.662c-.675-.499-1.364-.85-2.068-1.056a7.636 7.636 0 00-2.288-.33c-1.569 0-2.75.44-3.542 1.32-.777.865-1.166 2.12-1.166 3.762 0 1.657.396 2.911 1.188 3.762.807.85 1.995 1.276 3.564 1.276.836 0 1.716-.132 2.64-.396v-3.036h-3.344v-2.464h6.16v7.612c-.763.381-1.643.675-2.64.88-.997.205-1.995.308-2.992.308zM43 19.752V4.242h3.41V16.87h7.172v2.882H43zm18.946.242c-1.525 0-2.867-.33-4.026-.99a7.13 7.13 0 01-2.684-2.794c-.63-1.203-.946-2.61-.946-4.224 0-1.613.315-3.014.946-4.202.645-1.203 1.54-2.134 2.684-2.794 1.144-.66 2.486-.99 4.026-.99 1.54 0 2.882.33 4.026.99a6.754 6.754 0 012.684 2.794c.645 1.188.968 2.581.968 4.18 0 1.613-.323 3.021-.968 4.224a6.898 6.898 0 01-2.684 2.816c-1.144.66-2.486.99-4.026.99zm0-2.904c1.29 0 2.295-.447 3.014-1.342.733-.91 1.1-2.163 1.1-3.762 0-1.613-.36-2.86-1.078-3.74-.719-.895-1.73-1.342-3.036-1.342-1.276 0-2.28.447-3.014 1.342-.719.88-1.078 2.127-1.078 3.74 0 1.599.36 2.853 1.078 3.762.733.895 1.738 1.342 3.014 1.342zm8.169 2.662l7.128-15.51h2.75l7.128 15.51h-3.432l-1.452-3.366h-7.238l-1.43 3.366h-3.454zm8.47-11.88l-2.442 5.852h4.972l-2.486-5.852h-.044zm9.875 11.88V4.242h2.53l7.745 9.878V4.242h3.168v15.51h-2.508l-7.766-9.9v9.9H88.46z" fill="#0378FF"/><path fill-rule="evenodd" clip-rule="evenodd" d="M25.358 9.707V2.723c0-1.274-1.274-2.1-2.48-1.55L4.964 9.16c-.483.206-.896.55-1.24.93l-.07.068c0 .035-.034.069-.068.103a2.223 2.223 0 00-.345 1.17 2.03 2.03 0 001.275 1.894l7.98 3.553c2.47-4.29 7.1-7.178 12.404-7.178.153 0 .306.002.459.007zm-22.186 2.93c.071.182.163.352.272.508L3 12.947v-.276c0-.034.034-.103.103-.103.035 0 .07.034.07.069z" fill="url(#paint0_linear)"/><path opacity=".35" fill-rule="evenodd" clip-rule="evenodd" d="M25.358 9.707V2.723c0-1.274-1.274-2.1-2.48-1.55L4.964 9.16c-.483.206-.896.55-1.24.93l-.07.068c0 .035-.034.069-.068.103a2.223 2.223 0 00-.345 1.17 2.03 2.03 0 001.275 1.894l7.98 3.553c2.47-4.29 7.1-7.178 12.404-7.178.153 0 .306.002.459.007zm-22.186 2.93c.071.182.163.352.272.508L3 12.947v-.276c0-.034.034-.103.103-.103.035 0 .07.034.07.069z" fill="url(#paint1_linear)"/><path fill-rule="evenodd" clip-rule="evenodd" d="M38.5 24c0 7.456-6.044 13.5-13.5 13.5S11.5 31.456 11.5 24 17.544 10.5 25 10.5 38.5 16.544 38.5 24zm.5 0c0 7.732-6.268 14-14 14s-14-6.268-14-14 6.268-14 14-14 14 6.268 14 14zM25 37c7.18 0 13-5.82 13-13s-5.82-13-13-13-13 5.82-13 13 5.82 13 13 13z" fill="url(#paint2_linear)"/><path fill-rule="evenodd" clip-rule="evenodd" d="M38.5 24c0 7.456-6.044 13.5-13.5 13.5S11.5 31.456 11.5 24 17.544 10.5 25 10.5 38.5 16.544 38.5 24zm.5 0c0 7.732-6.268 14-14 14s-14-6.268-14-14 6.268-14 14-14 14 6.268 14 14zM25 37c7.18 0 13-5.82 13-13s-5.82-13-13-13-13 5.82-13 13 5.82 13 13 13z" fill="#03E69F"/><path fill-rule="evenodd" clip-rule="evenodd" d="M25.358 25.011v15.766c0 1.24-1.274 2.066-2.411 1.584L5.033 34.375A3.435 3.435 0 013 31.241V12.17c0-.034.034-.103.103-.103.035 0 .07.034.07.069a2.39 2.39 0 001.308 1.342l.31.138 18.57 8.262a3.461 3.461 0 011.997 3.132z" fill="url(#paint3_linear)"/><defs><linearGradient id="paint0_linear" x1="-4.269" y1="3.929" x2="2.47" y2="24.451" gradientUnits="userSpaceOnUse"><stop stop-color="#E29A9A"/><stop offset="0" stop-color="#03E69F"/><stop offset="1" stop-color="#0378FF"/></linearGradient><linearGradient id="paint1_linear" x1="3" y1="5" x2="20.747" y2="-11.665" gradientUnits="userSpaceOnUse"><stop stop-color="#00326C"/><stop offset="1" stop-color="#BF3C3C" stop-opacity="0"/></linearGradient><linearGradient id="paint2_linear" x1="-1.718" y1="8.586" x2="41.103" y2="66.493" gradientUnits="userSpaceOnUse"><stop stop-color="#E29A9A"/><stop offset="0" stop-color="#03E69F"/><stop offset="1" stop-color="#0378FF"/></linearGradient><linearGradient id="paint3_linear" x1="-4.269" y1="8.247" x2="25.504" y2="42.522" gradientUnits="userSpaceOnUse"><stop stop-color="#E29A9A"/><stop offset="0" stop-color="#03E69F"/><stop offset="1" stop-color="#0378FF"/></linearGradient></defs></svg>