<svg width="18" height="18" viewBox="0 0 18 18" fill="none" xmlns="http://www.w3.org/2000/svg">
<g opacity="0.8">
<path d="M14.1099 6.31024C14.232 6.18819 14.3006 6.02265 14.3006 5.85004C14.3006 5.67743 14.232 5.51189 14.1099 5.38984C13.9879 5.26779 13.8224 5.19922 13.6497 5.19922C13.4771 5.19922 13.3116 5.26779 13.1895 5.38984L7.14975 11.4309L5.00995 9.28984C4.88789 9.16779 4.72236 9.09922 4.54975 9.09922C4.37714 9.09922 4.2116 9.16779 4.08955 9.28984C3.96749 9.41189 3.89893 9.57743 3.89893 9.75004C3.89893 9.92265 3.96749 10.0882 4.08955 10.2102L6.68955 12.8102C6.74993 12.8708 6.82166 12.9188 6.90062 12.9516C6.97959 12.9843 7.06425 13.0012 7.14975 13.0012C7.23524 13.0012 7.3199 12.9843 7.39887 12.9516C7.47784 12.9188 7.54957 12.8708 7.60995 12.8102L14.1099 6.31024Z" fill="#039AE2"/>
</g>
</svg>
