<svg width="38" height="43" viewBox="0 0 38 43" fill="none" xmlns="http://www.w3.org/2000/svg">
<path fill-rule="evenodd" clip-rule="evenodd" d="M23.3585 9.70721V2.72261C23.3585 1.44893 22.0838 0.622764 20.878 1.17354L2.96367 9.15984C2.48136 9.36639 2.06796 9.71062 1.72345 10.0893L1.65455 10.1581C1.65455 10.1925 1.62011 10.227 1.58567 10.2614L1.58564 10.2614C1.37894 10.6056 1.24114 10.9843 1.24114 11.4318C1.24114 12.2924 1.7579 13.0153 2.51581 13.3251L10.4967 16.8783C12.9652 12.5884 17.5953 9.7 22.9 9.7C23.0534 9.7 23.2062 9.70242 23.3585 9.70721ZM1.17225 12.6366C1.24324 12.819 1.33512 12.9895 1.44437 13.1454L1 12.9468V12.671C1 12.6366 1.03445 12.5678 1.10335 12.5678C1.1378 12.5678 1.17225 12.6022 1.17225 12.6366Z" fill="url(#paint0_linear)"/>
<path opacity="0.35" fill-rule="evenodd" clip-rule="evenodd" d="M23.3585 9.70721V2.72261C23.3585 1.44893 22.0838 0.622764 20.878 1.17354L2.96367 9.15984C2.48136 9.36639 2.06796 9.71062 1.72345 10.0893L1.65455 10.1581C1.65455 10.1925 1.62011 10.227 1.58567 10.2614L1.58564 10.2614C1.37894 10.6056 1.24113 10.9843 1.24113 11.4318C1.24113 12.2924 1.7579 13.0153 2.51581 13.3251L10.4967 16.8783C12.9652 12.5884 17.5953 9.7 22.9 9.7C23.0534 9.7 23.2062 9.70242 23.3585 9.70721ZM1.17225 12.6366C1.24324 12.819 1.33512 12.9895 1.44437 13.1454L1 12.9468V12.671C1 12.6366 1.03445 12.5678 1.10335 12.5678C1.1378 12.5678 1.17225 12.6022 1.17225 12.6366Z" fill="url(#paint1_linear)"/>
<path fill-rule="evenodd" clip-rule="evenodd" d="M36.5 24C36.5 31.4558 30.4558 37.5 23 37.5C15.5442 37.5 9.5 31.4558 9.5 24C9.5 16.5442 15.5442 10.5 23 10.5C30.4558 10.5 36.5 16.5442 36.5 24ZM37 24C37 31.732 30.732 38 23 38C15.268 38 9 31.732 9 24C9 16.268 15.268 10 23 10C30.732 10 37 16.268 37 24ZM23 37C30.1797 37 36 31.1797 36 24C36 16.8203 30.1797 11 23 11C15.8203 11 10 16.8203 10 24C10 31.1797 15.8203 37 23 37Z" fill="url(#paint2_linear)"/>
<path fill-rule="evenodd" clip-rule="evenodd" d="M36.5 24C36.5 31.4558 30.4558 37.5 23 37.5C15.5442 37.5 9.5 31.4558 9.5 24C9.5 16.5442 15.5442 10.5 23 10.5C30.4558 10.5 36.5 16.5442 36.5 24ZM37 24C37 31.732 30.732 38 23 38C15.268 38 9 31.732 9 24C9 16.268 15.268 10 23 10C30.732 10 37 16.268 37 24ZM23 37C30.1797 37 36 31.1797 36 24C36 16.8203 30.1797 11 23 11C15.8203 11 10 16.8203 10 24C10 31.1797 15.8203 37 23 37Z" fill="#03E69F"/>
<path fill-rule="evenodd" clip-rule="evenodd" d="M23.3585 25.0111V40.7772C23.3585 42.0164 22.0838 42.8426 20.9469 42.3606L3.03259 34.3744C1.79236 33.8236 1 32.5843 1 31.2418V14.925V12.1711C1 12.1366 1.03445 12.0678 1.10335 12.0678C1.1378 12.0678 1.17225 12.1022 1.17225 12.1366C1.41341 12.7563 1.89571 13.2382 2.48138 13.4792L2.79143 13.6169L21.3604 21.8785C22.5661 22.4293 23.3585 23.6686 23.3585 25.0111Z" fill="url(#paint3_linear)"/>
<defs>
<linearGradient id="paint0_linear" x1="-6.26913" y1="3.92871" x2="0.470418" y2="24.4508" gradientUnits="userSpaceOnUse">
<stop stop-color="#E29A9A"/>
<stop offset="0.0001" stop-color="#03E69F"/>
<stop offset="1" stop-color="#0378FF"/>
</linearGradient>
<linearGradient id="paint1_linear" x1="1" y1="5" x2="18.7466" y2="-11.6651" gradientUnits="userSpaceOnUse">
<stop stop-color="#00326C"/>
<stop offset="1" stop-color="white" stop-opacity="0"/>
<stop offset="1" stop-color="#BF3C3C" stop-opacity="0"/>
</linearGradient>
<linearGradient id="paint2_linear" x1="-3.71836" y1="8.5861" x2="39.1026" y2="66.4926" gradientUnits="userSpaceOnUse">
<stop stop-color="#E29A9A"/>
<stop offset="0.0001" stop-color="#03E69F"/>
<stop offset="1" stop-color="#0378FF"/>
</linearGradient>
<linearGradient id="paint3_linear" x1="-6.26913" y1="8.24677" x2="23.5041" y2="42.5215" gradientUnits="userSpaceOnUse">
<stop stop-color="#E29A9A"/>
<stop offset="0.0001" stop-color="#03E69F"/>
<stop offset="1" stop-color="#0378FF"/>
</linearGradient>
</defs>
</svg>
