<svg width="146" height="43" viewBox="0 0 146 43" fill="none" xmlns="http://www.w3.org/2000/svg">
<path d="M43 38.7522V23.2422H50.106C51.7633 23.2422 53.0393 23.6015 53.934 24.3202C54.8433 25.0389 55.298 26.0215 55.298 27.2682C55.298 28.0895 55.0927 28.8009 54.682 29.4022C54.2713 29.9889 53.6993 30.4289 52.966 30.7222C53.846 30.9715 54.5207 31.4115 54.99 32.0422C55.474 32.6729 55.716 33.4502 55.716 34.3742C55.716 35.7529 55.232 36.8309 54.264 37.6082C53.3107 38.3709 52.0053 38.7522 50.348 38.7522H43ZM46.256 29.6222H49.512C51.184 29.6222 52.02 28.9769 52.02 27.6862C52.02 26.4102 51.184 25.7722 49.512 25.7722H46.256V29.6222ZM46.256 36.2222H49.886C50.766 36.2222 51.4113 36.0535 51.822 35.7162C52.2327 35.3789 52.438 34.8655 52.438 34.1762C52.438 33.5015 52.2327 32.9955 51.822 32.6582C51.4113 32.3209 50.766 32.1522 49.886 32.1522H46.256V36.2222Z" fill="#0378FF"/>
<path d="M56.4504 38.7522L63.5784 23.2422H66.3284L73.4564 38.7522H70.0244L68.5724 35.3862H61.3344L59.9044 38.7522H56.4504ZM64.9204 26.8722L62.4784 32.7242H67.4504L64.9644 26.8722H64.9204Z" fill="#0378FF"/>
<path d="M74.7969 38.7522V23.2422H77.3269L85.0709 33.1202V23.2422H88.2389V38.7522H85.7309L77.9649 28.8522V38.7522H74.7969Z" fill="#0378FF"/>
<path d="M91.3613 38.7522V23.2422H94.7713V29.9962H94.8153L101.261 23.2422H105.353L98.1373 30.6562L105.661 38.7522H101.525L94.8153 31.6682H94.7713V38.7522H91.3613Z" fill="#0378FF"/>
<path d="M106.465 38.7522V23.2422H109.875V38.7522H106.465Z" fill="#0378FF"/>
<path d="M112.975 38.7522V23.2422H115.505L123.249 33.1202V23.2422H126.417V38.7522H123.909L116.143 28.8522V38.7522H112.975Z" fill="#0378FF"/>
<path d="M137.217 38.994C135.472 38.994 133.99 38.664 132.773 38.004C131.57 37.344 130.654 36.42 130.023 35.232C129.392 34.044 129.077 32.6507 129.077 31.052C129.077 29.4093 129.4 27.9867 130.045 26.784C130.705 25.5813 131.651 24.65 132.883 23.99C134.115 23.33 135.596 23 137.327 23C138.412 23 139.439 23.154 140.407 23.462C141.39 23.77 142.189 24.1807 142.805 24.694L141.705 27.356C141.03 26.8573 140.341 26.5053 139.637 26.3C138.933 26.08 138.17 25.97 137.349 25.97C135.78 25.97 134.599 26.41 133.807 27.29C133.03 28.1553 132.641 29.4093 132.641 31.052C132.641 32.7093 133.037 33.9633 133.829 34.814C134.636 35.6647 135.824 36.09 137.393 36.09C138.229 36.09 139.109 35.958 140.033 35.694V32.658H136.689V30.194H142.849V37.806C142.086 38.1873 141.206 38.4807 140.209 38.686C139.212 38.8913 138.214 38.994 137.217 38.994Z" fill="#0378FF"/>
<path d="M43 19.7522V4.24219H46.41V16.8702H53.582V19.7522H43Z" fill="#0378FF"/>
<path d="M61.946 19.994C60.4206 19.994 59.0786 19.664 57.92 19.004C56.776 18.3293 55.8813 17.398 55.236 16.21C54.6053 15.0073 54.29 13.5993 54.29 11.986C54.29 10.3727 54.6053 8.972 55.236 7.784C55.8813 6.58133 56.776 5.65 57.92 4.99C59.064 4.33 60.406 4 61.946 4C63.486 4 64.828 4.33 65.972 4.99C67.1306 5.65 68.0253 6.58133 68.656 7.784C69.3013 8.972 69.624 10.3653 69.624 11.964C69.624 13.5773 69.3013 14.9853 68.656 16.188C68.0253 17.3907 67.1306 18.3293 65.972 19.004C64.828 19.664 63.486 19.994 61.946 19.994ZM61.946 17.09C63.2366 17.09 64.2413 16.6427 64.96 15.748C65.6933 14.8387 66.06 13.5847 66.06 11.986C66.06 10.3727 65.7006 9.126 64.982 8.246C64.2633 7.35133 63.2513 6.904 61.946 6.904C60.67 6.904 59.6653 7.35133 58.932 8.246C58.2133 9.126 57.854 10.3727 57.854 11.986C57.854 13.5847 58.2133 14.8387 58.932 15.748C59.6653 16.6427 60.67 17.09 61.946 17.09Z" fill="#0378FF"/>
<path d="M70.1145 19.7522L77.2425 4.24219H79.9925L87.1205 19.7522H83.6885L82.2365 16.3862H74.9985L73.5685 19.7522H70.1145ZM78.5845 7.87219L76.1425 13.7242H81.1145L78.6285 7.87219H78.5845Z" fill="#0378FF"/>
<path d="M88.4609 19.7522V4.24219H90.9909L98.7349 14.1202V4.24219H101.903V19.7522H99.3949L91.6289 9.85219V19.7522H88.4609Z" fill="#0378FF"/>
<path fill-rule="evenodd" clip-rule="evenodd" d="M25.3585 9.70721V2.72261C25.3585 1.44893 24.0838 0.622766 22.878 1.17354L4.96367 9.15984C4.48136 9.36639 4.06796 9.71062 3.72345 10.0893L3.65455 10.1581C3.65455 10.1925 3.62011 10.227 3.58567 10.2614H3.58564C3.37894 10.6056 3.24114 10.9843 3.24114 11.4318C3.24114 12.2924 3.7579 13.0153 4.51581 13.3251L12.4967 16.8783C14.9652 12.5884 19.5953 9.7 24.9 9.7C25.0534 9.7 25.2062 9.70242 25.3585 9.70721ZM3.17225 12.6366C3.24324 12.819 3.33512 12.9895 3.44437 13.1454L3 12.9468V12.671C3 12.6366 3.03445 12.5678 3.10335 12.5678C3.1378 12.5678 3.17225 12.6022 3.17225 12.6366Z" fill="url(#paint0_linear)"/>
<path opacity="0.35" fill-rule="evenodd" clip-rule="evenodd" d="M25.3585 9.70721V2.72261C25.3585 1.44893 24.0838 0.622766 22.878 1.17354L4.96367 9.15984C4.48136 9.36639 4.06796 9.71062 3.72345 10.0893L3.65455 10.1581C3.65455 10.1925 3.62011 10.227 3.58567 10.2614H3.58564C3.37894 10.6056 3.24113 10.9843 3.24113 11.4318C3.24113 12.2924 3.7579 13.0153 4.51581 13.3251L12.4967 16.8783C14.9652 12.5884 19.5953 9.7 24.9 9.7C25.0534 9.7 25.2062 9.70242 25.3585 9.70721ZM3.17225 12.6366C3.24324 12.819 3.33512 12.9895 3.44437 13.1454L3 12.9468V12.671C3 12.6366 3.03445 12.5678 3.10335 12.5678C3.1378 12.5678 3.17225 12.6022 3.17225 12.6366Z" fill="url(#paint1_linear)"/>
<path fill-rule="evenodd" clip-rule="evenodd" d="M38.5 24C38.5 31.4558 32.4558 37.5 25 37.5C17.5442 37.5 11.5 31.4558 11.5 24C11.5 16.5442 17.5442 10.5 25 10.5C32.4558 10.5 38.5 16.5442 38.5 24ZM39 24C39 31.732 32.732 38 25 38C17.268 38 11 31.732 11 24C11 16.268 17.268 10 25 10C32.732 10 39 16.268 39 24ZM25 37C32.1797 37 38 31.1797 38 24C38 16.8203 32.1797 11 25 11C17.8203 11 12 16.8203 12 24C12 31.1797 17.8203 37 25 37Z" fill="url(#paint2_linear)"/>
<path fill-rule="evenodd" clip-rule="evenodd" d="M38.5 24C38.5 31.4558 32.4558 37.5 25 37.5C17.5442 37.5 11.5 31.4558 11.5 24C11.5 16.5442 17.5442 10.5 25 10.5C32.4558 10.5 38.5 16.5442 38.5 24ZM39 24C39 31.732 32.732 38 25 38C17.268 38 11 31.732 11 24C11 16.268 17.268 10 25 10C32.732 10 39 16.268 39 24ZM25 37C32.1797 37 38 31.1797 38 24C38 16.8203 32.1797 11 25 11C17.8203 11 12 16.8203 12 24C12 31.1797 17.8203 37 25 37Z" fill="#03E69F"/>
<path fill-rule="evenodd" clip-rule="evenodd" d="M25.3585 25.0112V40.7773C25.3585 42.0165 24.0838 42.8427 22.9469 42.3607L5.03259 34.3745C3.79236 33.8237 3 32.5844 3 31.2419V14.9251V12.1712C3 12.1367 3.03445 12.0679 3.10335 12.0679C3.1378 12.0679 3.17225 12.1023 3.17225 12.1367C3.41341 12.7564 3.89571 13.2383 4.48138 13.4793L4.79143 13.617L23.3604 21.8786C24.5661 22.4294 25.3585 23.6687 25.3585 25.0112Z" fill="url(#paint3_linear)"/>
<defs>
<linearGradient id="paint0_linear" x1="-4.26913" y1="3.92871" x2="2.47042" y2="24.4508" gradientUnits="userSpaceOnUse">
<stop stop-color="#E29A9A"/>
<stop offset="0.0001" stop-color="#03E69F"/>
<stop offset="1" stop-color="#0378FF"/>
</linearGradient>
<linearGradient id="paint1_linear" x1="3" y1="5" x2="20.7466" y2="-11.6651" gradientUnits="userSpaceOnUse">
<stop stop-color="#00326C"/>
<stop offset="1" stop-color="#BF3C3C" stop-opacity="0"/>
</linearGradient>
<linearGradient id="paint2_linear" x1="-1.71836" y1="8.5861" x2="41.1026" y2="66.4926" gradientUnits="userSpaceOnUse">
<stop stop-color="#E29A9A"/>
<stop offset="0.0001" stop-color="#03E69F"/>
<stop offset="1" stop-color="#0378FF"/>
</linearGradient>
<linearGradient id="paint3_linear" x1="-4.26913" y1="8.24684" x2="25.5041" y2="42.5216" gradientUnits="userSpaceOnUse">
<stop stop-color="#E29A9A"/>
<stop offset="0.0001" stop-color="#03E69F"/>
<stop offset="1" stop-color="#0378FF"/>
</linearGradient>
</defs>
</svg>
